<?xml version="1.0" encoding="utf-8"?>
<!-- Generator: Adobe Illustrator 27.9.0, SVG Export Plug-In . SVG Version: 6.00 Build 0)  -->
<svg version="1.1" id="Camada_1" xmlns="http://www.w3.org/2000/svg" xmlns:xlink="http://www.w3.org/1999/xlink" x="0px" y="0px"
	 viewBox="0 0 216 72" style="enable-background:new 0 0 216 72;" xml:space="preserve">
<style type="text/css">
	.st0{fill:none;}
	.st1{enable-background:new    ;}
	.st2{fill:#F46A35;}
</style>
<rect x="3262.63" y="831.22" class="st0" width="0" height="2.34"/>
<g>
	<g class="st1">
		<path d="M30.92,20.95c5.26,0,9.63,1.99,13.12,5.98c3.48,3.99,5.22,9.04,5.22,15.16c0,6.51-1.97,11.82-5.9,15.92
			c-3.93,4.1-8.98,6.15-15.15,6.15c-6.17,0-11.23-2.02-15.19-6.06c-3.96-4.04-5.94-9.21-5.94-15.49V4.95h10.37V27.6
			C20.27,23.17,24.76,20.95,30.92,20.95z M28.37,55.39c3.19,0,5.79-1.19,7.81-3.58c2.02-2.38,3.03-5.46,3.03-9.22
			c0-3.82-1.01-6.92-3.03-9.3c-2.02-2.39-4.62-3.58-7.81-3.58c-3.24,0-5.87,1.19-7.89,3.58c-2.02,2.39-3.03,5.49-3.03,9.3
			c0,3.76,1.01,6.84,3.03,9.22C22.5,54.2,25.13,55.39,28.37,55.39z"/>
		<path d="M55.64,4.95h10.37v58.44H55.64V4.95z"/>
		<path d="M84.31,5.84c1.2,1.15,1.79,2.62,1.79,4.42c0,1.8-0.6,3.26-1.79,4.38c-1.2,1.12-2.72,1.68-4.58,1.68
			c-1.86,0-3.38-0.58-4.54-1.73c-1.17-1.15-1.75-2.6-1.75-4.34c0-1.8,0.58-3.27,1.75-4.42c1.17-1.15,2.68-1.73,4.54-1.73
			C81.58,4.11,83.11,4.69,84.31,5.84z M74.54,21.79h10.45v41.6H74.54V21.79z"/>
		<path d="M121.02,21.79h11.08l-15.15,41.6H104.6l-15.15-41.6h11.08l10.29,30.74L121.02,21.79z"/>
		<path d="M175.56,42.68c0,1.29-0.11,2.39-0.32,3.28h-31.82c0.58,2.75,1.89,4.98,3.91,6.69c2.02,1.71,4.38,2.57,7.1,2.57
			c2.29,0,4.33-0.63,6.14-1.9c1.81-1.26,3.08-2.85,3.83-4.76h10.45c-1.12,4.55-3.59,8.28-7.41,11.2c-3.83,2.92-8.19,4.38-13.08,4.38
			c-6.17,0-11.26-2.02-15.27-6.06c-4.01-4.04-6.02-9.21-6.02-15.49c0-6.29,2.01-11.46,6.02-15.54c4.01-4.07,9.1-6.1,15.27-6.1
			c6.11,0,11.16,2.04,15.15,6.1C173.49,31.13,175.51,36.33,175.56,42.68z M154.43,29.88c-2.45,0-4.61,0.7-6.5,2.11
			c-1.89,1.4-3.26,3.28-4.11,5.64h21.61c-0.8-2.3-2.21-4.17-4.23-5.6S156.93,29.88,154.43,29.88z"/>
		<path d="M191.83,63.39h-10.45V38.63c0-5.33,1.73-9.47,5.18-12.42c3.46-2.95,8.32-4.42,14.59-4.42v9.18
			c-6.22,0-9.33,2.89-9.33,8.67V63.39z"/>
	</g>
	<g class="st1">
		<path class="st2" d="M207.93,49.75c2.12,0,3.85,0.67,5.18,2.02c1.33,1.35,1.99,3.06,1.99,5.14c0,2.13-0.67,3.86-1.99,5.18
			s-3.06,1.98-5.18,1.98c-2.07,0-3.78-0.67-5.1-2.02c-1.33-1.35-1.99-3.06-1.99-5.14c0-2.08,0.66-3.79,1.99-5.14
			C204.16,50.42,205.86,49.75,207.93,49.75z"/>
	</g>
</g>
</svg>
